<?xml version="1.0" standalone="no"?>
<!DOCTYPE svg PUBLIC "-//W3C//DTD SVG 20010904//EN"
 "http://www.w3.org/TR/2001/REC-SVG-20010904/DTD/svg10.dtd">
<svg version="1.0" xmlns="http://www.w3.org/2000/svg"
 width="700.000000pt" height="700.000000pt" viewBox="0 0 700.000000 700.000000"
 preserveAspectRatio="xMidYMid meet">
<metadata>
Created by potrace 1.14, written by Peter Selinger 2001-2017
</metadata>
<g transform="translate(0.000000,700.000000) scale(0.100000,-0.100000)"
fill="#000000" stroke="none">
<path d="M855 6994 c-205 -43 -343 -101 -466 -194 -113 -85 -219 -212 -281
-335 -29 -57 -76 -183 -83 -223 -2 -15 -9 -49 -14 -77 -7 -32 -9 -984 -8
-2695 l2 -2645 23 -78 c52 -184 128 -320 247 -441 95 -97 126 -121 223 -177
88 -50 174 -83 290 -109 85 -19 140 -19 2737 -17 2486 2 2654 4 2715 20 194
52 340 136 476 273 134 134 225 304 264 494 17 79 18 203 19 1873 1 1945 5
1825 -52 1885 -94 101 -270 57 -306 -75 -8 -26 -11 -603 -11 -1803 0 -1152 -4
-1781 -11 -1810 -43 -192 -163 -345 -337 -430 -132 -64 54 -60 -2814 -58
-2489 3 -2615 4 -2663 21 -202 73 -338 205 -407 397 l-23 65 -2 2625 c-3 2357
-1 2631 13 2685 59 226 235 398 461 450 94 22 5202 22 5303 1 228 -50 412
-231 464 -459 24 -102 21 -272 -5 -349 -45 -134 -146 -231 -279 -268 -36 -10
-558 -13 -2475 -14 l-2430 -1 -40 -23 c-80 -46 -114 -140 -81 -226 20 -51 47
-79 101 -102 37 -15 222 -16 2465 -16 1774 0 2442 3 2487 11 299 56 538 275
619 571 26 95 28 355 4 470 -39 189 -131 362 -265 496 -128 130 -271 212 -463
267 l-77 22 -2650 1 c-1457 1 -2659 0 -2670 -2z"/>
<path d="M3083 6254 c-157 -40 -181 -255 -38 -336 39 -22 46 -22 360 -23 284
0 324 2 357 18 136 64 139 260 6 328 -40 20 -56 22 -342 23 -191 1 -316 -3
-343 -10z"/>
<path d="M4373 6254 c-79 -20 -138 -99 -135 -181 2 -43 27 -101 55 -125 56
-50 69 -52 307 -53 223 -1 225 -1 275 25 139 72 124 283 -25 332 -46 15 -419
17 -477 2z"/>
<path d="M5493 6259 c-91 -19 -148 -88 -147 -178 1 -32 8 -70 18 -88 20 -40
70 -78 116 -90 19 -5 172 -9 340 -8 298 1 306 1 345 23 77 44 115 139 88 217
-17 50 -66 101 -112 116 -37 13 -595 19 -648 8z"/>
<path d="M4054 4370 c-68 -30 -86 -59 -161 -252 -40 -101 -187 -480 -328 -843
-141 -363 -278 -716 -304 -785 -60 -154 -295 -760 -345 -890 -20 -52 -41 -104
-46 -115 -4 -11 -35 -87 -67 -170 -64 -166 -71 -222 -38 -285 22 -42 37 -55
93 -81 32 -15 55 -19 85 -15 89 12 134 58 180 181 41 113 416 1078 427 1100 8
18 72 182 135 350 13 33 97 251 188 485 91 234 188 486 217 560 28 74 56 144
61 155 4 11 18 45 29 75 11 30 25 64 29 75 50 111 96 256 95 297 -3 122 -139
209 -250 158z"/>
<path d="M4830 3616 c-102 -45 -149 -158 -104 -249 9 -18 162 -179 341 -358
l326 -327 -354 -353 c-298 -297 -357 -361 -367 -395 -15 -50 -15 -59 -2 -106
31 -111 159 -165 261 -112 18 9 225 209 460 443 398 398 426 429 437 473 13
52 9 95 -13 137 -18 34 -806 821 -841 839 -34 18 -112 22 -144 8z"/>
<path d="M2130 3608 c-28 -8 -122 -97 -446 -420 -292 -291 -416 -421 -427
-448 -17 -44 -14 -108 8 -150 17 -33 819 -840 870 -876 68 -48 153 -41 219 17
68 60 83 156 37 229 -8 14 -170 180 -359 369 l-344 345 323 322 c178 178 332
338 341 356 25 46 23 121 -4 170 -40 71 -134 108 -218 86z"/>
</g>
</svg>
