<?xml version="1.0" encoding="UTF-8" standalone="no"?>
<!-- Uploaded to: SVG Repo, www.svgrepo.com, Generator: SVG Repo Mixer Tools -->

<svg
   width="666.82233"
   height="666.87451"
   viewBox="0 0 20.00467 20.006235"
   fill="none"
   version="1.1"
   id="svg125"
   sodipodi:docname="phone-office-svgrepo-com.svg"
   inkscape:version="1.2.2 (b0a8486541, 2022-12-01)"
   xmlns:inkscape="http://www.inkscape.org/namespaces/inkscape"
   xmlns:sodipodi="http://sodipodi.sourceforge.net/DTD/sodipodi-0.dtd"
   xmlns="http://www.w3.org/2000/svg"
   xmlns:svg="http://www.w3.org/2000/svg">
  <defs
     id="defs129" />
  <sodipodi:namedview
     id="namedview127"
     pagecolor="#ffffff"
     bordercolor="#666666"
     borderopacity="1.0"
     inkscape:showpageshadow="2"
     inkscape:pageopacity="0.0"
     inkscape:pagecheckerboard="0"
     inkscape:deskcolor="#d1d1d1"
     showgrid="false"
     inkscape:zoom="0.295"
     inkscape:cx="223.72881"
     inkscape:cy="332.20339"
     inkscape:window-width="1280"
     inkscape:window-height="769"
     inkscape:window-x="0"
     inkscape:window-y="0"
     inkscape:window-maximized="1"
     inkscape:current-layer="svg125" />
  <path
     d="m 19.002335,8.0039011 h -6.4 c -0.5601,0 -0.8401,0 -1.054,-0.10899 -0.1882,-0.09588 -0.3411,-0.24886 -0.437,-0.43702 -0.109,-0.21391 -0.109,-0.49394 -0.109,-1.05399 v -3.4 m -3,0 h 7.8 c 1.1201,0 1.6802,0 2.108,0.21799 0.3763,0.19174 0.6823,0.4977 0.874,0.87403 0.218,0.42782 0.218,0.98787 0.218,2.10798 v 9.5999999 c 0,1.1201 0,1.6802 -0.218,2.108 -0.1917,0.3763 -0.4977,0.6823 -0.874,0.874 -0.4278,0.218 -0.9879,0.218 -2.108,0.218 h -11.6 c -1.12011,0 -1.68016,0 -2.10798,-0.218 -0.37633,-0.1917 -0.68229,-0.4977 -0.87403,-0.874 -0.21799,-0.4278 -0.21799,-0.9879 -0.21799,-2.108 V 6.2039011 c 0,-1.12011 0,-1.68016 0.21799,-2.10798 0.19174,-0.37633 0.4977,-0.68229 0.87403,-0.87403 0.40157,-0.20461 0.91963,-0.21717 1.90798,-0.21794 m 4,-5e-5 v -0.4 c 0,-0.56005 0,-0.84008 -0.10899,-1.05399 -0.09588,-0.18816 -0.24886,-0.34114 -0.43702,-0.43702 -0.21391,-0.10899 -0.49394,-0.10899 -1.05399,-0.10899 h -0.8 c -0.56005,0 -0.84008,0 -1.05399,0.10899 -0.18816,0.09588 -0.34114,0.24886 -0.43702,0.43702 -0.10899,0.21391 -0.10899,0.49394 -0.10899,1.05399 v 0.40005 m 4,-5e-5 V 13.403901 c 0,0.5601 0,0.8401 -0.10899,1.054 -0.09588,0.1882 -0.24886,0.3411 -0.43702,0.437 -0.21391,0.109 -0.49394,0.109 -1.05399,0.109 h -0.8 c -0.56005,0 -0.84008,0 -1.05399,-0.109 -0.18816,-0.0959 -0.34114,-0.2488 -0.43702,-0.437 -0.10899,-0.2139 -0.10899,-0.4939 -0.10899,-1.054 V 3.0039511 m 8,8.9999499 h 0.01 v -0.01 h -0.01 z m 0,3 h 0.01 v 0.01 h -0.01 z m 3,0 h 0.01 v 0.01 h -0.01 z m 0,-3 h 0.01 v 0.01 h -0.01 z"
     stroke-linecap="round"
     stroke-linejoin="round"
     id="path123" />
</svg>
